<svg width="52" height="50" viewBox="0 0 52 50" fill="none" xmlns="http://www.w3.org/2000/svg">
<path d="M34.7019 36.2685L27.1008 28.7487C26.823 28.4739 26.4947 28.424 26.318 28.424C26.1412 28.424 25.8129 28.4739 25.5351 28.7487L17.9087 36.2935C17.0501 37.1429 15.7117 38.5169 11.2419 38.5169L20.6108 47.7605C23.5654 50.6834 28.3634 50.6834 31.318 47.7605L40.7121 38.4919C38.4141 38.4919 36.4949 38.0422 34.7019 36.2685Z" fill="#57DFA7"/>
<path d="M17.9091 13.6592L25.5355 21.2039C25.7375 21.4038 26.0406 21.5287 26.3184 21.5287C26.5961 21.5287 26.8992 21.4038 27.1012 21.2039L34.6518 13.7342C36.4448 11.8855 38.4903 11.4608 40.7883 11.4608L31.3942 2.19222C28.4396 -0.73074 23.6416 -0.73074 20.687 2.19222L11.3181 11.4358C15.7626 11.4358 17.1263 12.8848 17.9091 13.6592Z" fill="#57DFA7"/>
<path d="M48.996 19.605L43.3141 13.959H40.1322C38.7685 13.959 37.4049 14.5086 36.4705 15.4829L28.8946 22.9777C28.1875 23.6772 27.2532 24.0269 26.3188 24.0269C25.4097 24.0269 24.4501 23.6522 23.743 22.9777L16.1166 15.408C15.157 14.4586 13.8439 13.909 12.455 13.909H8.74277L2.95984 19.655C0.00524771 22.5779 0.00524771 27.3246 2.95984 30.2476L8.74277 35.9936H12.4802C13.8439 35.9936 15.157 35.444 16.1419 34.4946L23.7683 26.9499C24.4754 26.2504 25.4097 25.9006 26.3441 25.9006C27.2784 25.9006 28.2128 26.2504 28.9199 26.9499L36.521 34.4696C37.4806 35.419 38.7938 35.9686 40.1827 35.9686H43.3646L49.0465 30.3225C52.0011 27.3746 52.0011 22.5779 48.996 19.605Z" fill="#57DFA7"/>
</svg>
